<svg width="24" height="24" viewBox="0 0 32 32" fill="currentColor" xmlns="http://www.w3.org/2000/svg">
<path d="M10.9697 17.4569C15.7025 17.4569 19.5389 21.4703 19.5391 26.4208C19.5391 26.8509 19.2061 27.2 18.7949 27.2001H3.14453C2.73339 27.1999 2.40039 26.8509 2.40039 26.4208C2.40057 21.4703 6.23698 17.4569 10.9697 17.4569ZM18.583 17.829C21.1765 17.023 23.9813 17.5446 26.1504 19.2362C28.3194 20.9278 29.5987 23.5908 29.6006 26.4208C29.6007 26.7972 29.3452 27.1117 29.0059 27.1844L28.8555 27.2001H21.5898C21.1786 27.2001 20.8447 26.8509 20.8447 26.4208C20.8449 26.0445 21.1002 25.7307 21.4395 25.6581L21.5898 25.6425L28.0684 25.6415L28.0615 25.5526C27.85 23.689 26.9685 21.9709 25.5879 20.7557L25.2607 20.4843C23.4684 19.0864 21.15 18.6561 19.0068 19.3221C18.6127 19.4446 18.1982 19.2091 18.0811 18.7968C17.9641 18.3845 18.1889 17.9515 18.583 17.829ZM10.9697 19.0145C7.42608 19.0146 4.49014 21.738 3.9707 25.2928L3.92578 25.6415H18.0107L17.9688 25.2928C17.4672 21.8606 14.7129 19.2034 11.334 19.0243L10.9697 19.0145ZM16.8477 6.828C18.7776 4.45312 22.1654 4.12049 24.4844 6.078C26.8035 8.03592 27.2079 11.5711 25.3955 14.0458C23.5831 16.5202 20.215 17.0321 17.8008 15.1971C17.5726 15.0217 17.3577 14.8283 17.1572 14.619C16.8662 14.3151 16.8658 13.8219 17.1562 13.5175C17.4467 13.2133 17.918 13.2128 18.209 13.5165C18.3565 13.6705 18.515 13.8127 18.6797 13.9393C20.437 15.275 22.8916 14.902 24.2129 13.0985C25.534 11.2946 25.2403 8.71714 23.5498 7.28992C21.8594 5.86281 19.3893 6.10565 17.9824 7.83679C17.7162 8.1645 17.246 8.205 16.9326 7.92664C16.6193 7.64806 16.5813 7.15579 16.8477 6.828ZM10.9697 4.79968C14.0048 4.79968 16.4648 7.37396 16.4648 10.5487C16.4647 13.7233 14.0047 16.2968 10.9697 16.2968C7.93475 16.2967 5.47477 13.7233 5.47461 10.5487C5.47461 7.37398 7.93465 4.79971 10.9697 4.79968ZM10.9697 6.35828C8.75715 6.3583 6.96387 8.23432 6.96387 10.5487C6.96403 12.863 8.75725 14.7391 10.9697 14.7391C13.1822 14.7391 14.9754 12.863 14.9756 10.5487C14.9756 8.2343 13.1823 6.35828 10.9697 6.35828Z" fill="#56627D"/>
</svg>
