<svg width="24" height="24" viewBox="0 0 24 24" fill="none" xmlns="http://www.w3.org/2000/svg">
<path fill-rule="evenodd" clip-rule="evenodd" d="M17.5766 2.43643C18.04 1.97297 18.7914 1.97297 19.2549 2.43643L21.4496 4.63113C21.913 5.09459 21.913 5.84599 21.4496 6.30944L19.2549 8.50415C18.7914 8.9676 18.04 8.9676 17.5766 8.50415L15.3819 6.30944C14.9184 5.84599 14.9184 5.09459 15.3819 4.63113L17.5766 2.43643ZM20.454 5.46423L18.4214 3.43161L16.384 5.46902L18.4166 7.50164L20.454 5.46423Z" fill="#56627D"/>
<path fill-rule="evenodd" clip-rule="evenodd" d="M3.50312 2.47028C2.78515 2.47028 2.20312 3.05231 2.20312 3.77028V7.17028C2.20312 7.88825 2.78516 8.47028 3.50313 8.47028H6.90313C7.6211 8.47028 8.20312 7.88825 8.20312 7.17028V3.77028C8.20312 3.05231 7.62109 2.47028 6.90312 2.47028H3.50312ZM3.50391 3.77243H6.90482V7.16754H3.50391V3.77243Z" fill="#56627D"/>
<path d="M18.4156 10.1474C18.7746 10.1474 19.0656 10.4385 19.0656 10.7974V13.761C19.0656 14.12 18.7746 14.411 18.4156 14.411C18.0567 14.411 17.7656 14.12 17.7656 13.761V10.7974C17.7656 10.4385 18.0567 10.1474 18.4156 10.1474Z" fill="#56627D"/>
<path fill-rule="evenodd" clip-rule="evenodd" d="M18.4157 15.7155C16.7589 15.7155 15.4157 17.0586 15.4157 18.7155C15.4157 20.3723 16.7589 21.7155 18.4157 21.7155C20.0726 21.7155 21.4157 20.3723 21.4157 18.7155C21.4157 17.0586 20.0726 15.7155 18.4157 15.7155ZM18.4159 20.4095C19.3534 20.4095 20.1135 19.6494 20.1135 18.7119C20.1135 17.7744 19.3534 17.0144 18.4159 17.0144C17.4784 17.0144 16.7184 17.7744 16.7184 18.7119C16.7184 19.6494 17.4784 20.4095 18.4159 20.4095Z" fill="#56627D"/>
<path d="M10.1542 4.82025C9.7952 4.82025 9.50418 5.11127 9.50418 5.47025C9.50418 5.82924 9.7952 6.12025 10.1542 6.12025H13.0847C13.4436 6.12025 13.7347 5.82924 13.7347 5.47025C13.7347 5.11127 13.4436 4.82025 13.0847 4.82025H10.1542Z" fill="#56627D"/>
<path d="M10.0241 16.5853L11.5371 18.0473L8.20874 18.0482C6.91087 18.0482 5.85874 16.9961 5.85874 15.6982V10.4209C5.85874 10.0619 5.56773 9.77087 5.20874 9.77087C4.84976 9.77087 4.55874 10.0619 4.55874 10.4209V15.6982C4.55874 17.7141 6.1929 19.3482 8.20874 19.3482H11.5362L10.0319 20.8015C9.77808 21.0553 9.77808 21.4669 10.0319 21.7207C10.2858 21.9746 10.6973 21.9746 10.9512 21.7207L13.9193 19.1569C14.1731 18.9031 14.1731 18.4915 13.9193 18.2377L10.9434 15.6661C10.6895 15.4122 10.278 15.4122 10.0241 15.6661C9.77027 15.9199 9.77027 16.3315 10.0241 16.5853Z" fill="#56627D"/>
</svg>
